<svg width="23" height="21" viewBox="0 0 23 21" fill="none" xmlns="http://www.w3.org/2000/svg">
<path d="M21.4086 0.949951H13.7693C12.9255 0.949951 12.2415 1.53743 12.2415 2.26213V6.19867C12.2415 6.92337 12.9255 7.51085 13.7693 7.51085H14.005L13.7724 9.1104C13.7528 9.24541 13.8322 9.37679 13.9721 9.44065C14.112 9.50451 14.2833 9.48758 14.4026 9.3981L16.9152 7.51085H21.4086C22.2524 7.51085 22.9364 6.92337 22.9364 6.19867V2.26213C22.9364 1.53743 22.2524 0.949951 21.4086 0.949951ZM22.1725 6.19867C22.1725 6.56102 21.8305 6.85476 21.4086 6.85476H16.7715C16.6791 6.85476 16.5898 6.88355 16.5202 6.93579L14.6547 8.3372L14.8166 7.22349C14.8302 7.13014 14.7965 7.03627 14.724 6.96574C14.6515 6.8952 14.5473 6.85479 14.4377 6.85476H13.7693C13.3474 6.85476 13.0054 6.56102 13.0054 6.19867V2.26213C13.0054 1.89978 13.3474 1.60604 13.7693 1.60604H21.4086C21.8305 1.60604 22.1725 1.89978 22.1725 2.26213V6.19867Z" fill="#BDBDBD"/>
<path d="M14.9152 3.24634C14.2823 3.24634 13.7693 3.68695 13.7693 4.23047C13.7693 4.774 14.2823 5.21461 14.9152 5.21461C15.548 5.21461 16.0611 4.774 16.0611 4.23047C16.0611 3.68695 15.548 3.24634 14.9152 3.24634ZM14.9152 4.55852C14.7042 4.55852 14.5332 4.41165 14.5332 4.23047C14.5332 4.0493 14.7042 3.90243 14.9152 3.90243C15.1261 3.90243 15.2971 4.0493 15.2971 4.23047C15.2971 4.41165 15.1261 4.55852 14.9152 4.55852Z" fill="#BDBDBD"/>
<path d="M17.5888 3.24634C16.9559 3.24634 16.4429 3.68695 16.4429 4.23047C16.4429 4.774 16.9559 5.21461 17.5888 5.21461C18.2216 5.21461 18.7346 4.774 18.7346 4.23047C18.7346 3.68695 18.2216 3.24634 17.5888 3.24634ZM17.5888 4.55852C17.3778 4.55852 17.2068 4.41165 17.2068 4.23047C17.2068 4.0493 17.3778 3.90243 17.5888 3.90243C17.7997 3.90243 17.9707 4.0493 17.9707 4.23047C17.9707 4.41165 17.7997 4.55852 17.5888 4.55852Z" fill="#BDBDBD"/>
<path d="M20.2626 3.24634C19.6297 3.24634 19.1167 3.68695 19.1167 4.23047C19.1167 4.774 19.6297 5.21461 20.2626 5.21461C20.8954 5.21461 21.4085 4.774 21.4085 4.23047C21.4085 3.68695 20.8954 3.24634 20.2626 3.24634ZM20.2626 4.55852C20.0516 4.55852 19.8806 4.41165 19.8806 4.23047C19.8806 4.0493 20.0516 3.90243 20.2626 3.90243C20.4735 3.90243 20.6445 4.0493 20.6445 4.23047C20.6445 4.41165 20.4735 4.55852 20.2626 4.55852Z" fill="#BDBDBD"/>
<path d="M21.4084 12.4316H18.0609L15.5484 10.5443C15.429 10.4548 15.2578 10.4379 15.1179 10.5018C14.978 10.5656 14.8985 10.697 14.9181 10.832L15.1507 12.4316H14.9151C14.0712 12.4316 13.3872 13.019 13.3872 13.7437V16.6961C13.3872 17.4208 14.0712 18.0083 14.9151 18.0083H21.4084C22.2522 18.0083 22.9363 17.4208 22.9363 16.6961V13.7437C22.9363 13.019 22.2522 12.4316 21.4084 12.4316ZM22.1723 16.6961C22.1723 17.0585 21.8303 17.3522 21.4084 17.3522H14.9151C14.4932 17.3522 14.1511 17.0585 14.1511 16.6961V13.7437C14.1511 13.3814 14.4932 13.0876 14.9151 13.0876H15.5835C15.693 13.0876 15.7973 13.0472 15.8698 12.9767C15.9422 12.9061 15.976 12.8123 15.9624 12.7189L15.8004 11.6052L17.6652 13.0066C17.735 13.059 17.8246 13.0878 17.9173 13.0876H21.4084C21.8303 13.0876 22.1723 13.3814 22.1723 13.7437V16.6961Z" fill="#BDBDBD"/>
<path d="M1.54641 12.4315H2.54868C2.80456 12.8106 3.13204 13.1504 3.51772 13.4373C1.59342 14.3654 0.40174 16.1128 0.400518 18.0083V19.6485C0.400518 20.192 0.913549 20.6326 1.54641 20.6326H11.4774C12.1103 20.6326 12.6233 20.192 12.6233 19.6485V18.0083C12.6191 16.1135 11.4292 14.367 9.50804 13.4356C9.89281 13.1491 10.2196 12.8098 10.4752 12.4315H11.4774C12.3213 12.4315 13.0053 11.844 13.0053 11.1193V9.80713C13.0037 9.3453 12.7188 8.9184 12.2555 8.6839C11.3849 6.60263 9.08692 5.2146 6.51192 5.2146C3.93693 5.2146 1.63898 6.60263 0.768348 8.6839C0.305094 8.9184 0.0201235 9.3453 0.0185547 9.80713V11.1193C0.0185547 11.844 0.702597 12.4315 1.54641 12.4315ZM1.54641 11.7754C1.1245 11.7754 0.782481 11.4817 0.782481 11.1193V9.80713C0.782481 9.44478 1.1245 9.15103 1.54641 9.15103H2.19574C1.83926 9.99903 1.83926 10.9274 2.19574 11.7754H1.54641ZM2.6923 10.4632C2.69178 9.17356 3.57116 8.0033 4.93966 7.47244C6.30817 6.94159 7.91188 7.14864 9.03817 8.0016C10.1645 8.85456 10.6043 10.1951 10.1623 11.4277C9.45113 11.6268 8.71035 11.7372 7.96262 11.7557C7.79462 11.3737 7.36937 11.1205 6.89389 11.1193H6.12996C5.4971 11.1193 4.98407 11.5599 4.98407 12.1034C4.98407 12.647 5.4971 13.0876 6.12996 13.0876H6.89389C7.38616 13.0863 7.82215 12.8144 7.97599 12.4128C8.56822 12.3924 9.15714 12.3265 9.73569 12.216C8.82865 13.4512 7.07938 14.022 5.44615 13.6155C3.81292 13.2091 2.6899 11.9236 2.6923 10.4632ZM7.27585 12.1034C7.27585 12.2846 7.10484 12.4315 6.89389 12.4315H6.12996C5.91901 12.4315 5.748 12.2846 5.748 12.1034C5.748 11.9223 5.91901 11.7754 6.12996 11.7754H6.89389C7.10484 11.7754 7.27585 11.9223 7.27585 12.1034ZM10.2911 14.7632C11.2987 15.6209 11.8637 16.7899 11.8594 18.0083V19.6485C11.8594 19.8297 11.6884 19.9765 11.4774 19.9765H9.56763V18.0083C9.56763 17.8271 9.39662 17.6802 9.18567 17.6802C8.97471 17.6802 8.8037 17.8271 8.8037 18.0083V19.9765H4.22015V18.0083C4.22015 17.8271 4.04914 17.6802 3.83818 17.6802C3.62723 17.6802 3.45622 17.8271 3.45622 18.0083V19.9765H1.54641C1.33545 19.9765 1.16444 19.8297 1.16444 19.6485V18.0083C1.1662 16.2375 2.35319 14.6253 4.21518 13.8647C5.63331 14.5776 7.38901 14.5776 8.80714 13.8647C9.359 14.0876 9.86121 14.3917 10.2911 14.7632ZM12.2414 11.1193C12.2414 11.4817 11.8993 11.7754 11.4774 11.7754H10.8281C11.1846 10.9274 11.1846 9.99903 10.8281 9.15103H11.4774C11.8993 9.15103 12.2414 9.44478 12.2414 9.80713V11.1193ZM6.51192 5.87058C8.57624 5.86977 10.4558 6.89193 11.3376 8.49494H10.4752C9.65911 7.27727 8.14782 6.52675 6.51192 6.52675C4.87603 6.52675 3.36474 7.27727 2.54868 8.49494H1.6862C2.56804 6.89193 4.44761 5.86977 6.51192 5.87058Z" fill="#BDBDBD"/>
<path d="M15.297 14.7279H16.4429C16.6539 14.7279 16.8249 14.581 16.8249 14.3998C16.8249 14.2186 16.6539 14.0718 16.4429 14.0718H15.297C15.0861 14.0718 14.915 14.2186 14.915 14.3998C14.915 14.581 15.0861 14.7279 15.297 14.7279Z" fill="#BDBDBD"/>
<path d="M21.0265 14.0718H17.9708C17.7599 14.0718 17.5889 14.2186 17.5889 14.3998C17.5889 14.581 17.7599 14.7279 17.9708 14.7279H21.0265C21.2375 14.7279 21.4085 14.581 21.4085 14.3998C21.4085 14.2186 21.2375 14.0718 21.0265 14.0718Z" fill="#BDBDBD"/>
<path d="M21.0266 15.7119H19.8807C19.6698 15.7119 19.4988 15.8588 19.4988 16.04C19.4988 16.2211 19.6698 16.368 19.8807 16.368H21.0266C21.2376 16.368 21.4086 16.2211 21.4086 16.04C21.4086 15.8588 21.2376 15.7119 21.0266 15.7119Z" fill="#BDBDBD"/>
<path d="M18.3527 15.7119H15.297C15.086 15.7119 14.915 15.8588 14.915 16.04C14.915 16.2211 15.086 16.368 15.297 16.368H18.3527C18.5637 16.368 18.7347 16.2211 18.7347 16.04C18.7347 15.8588 18.5637 15.7119 18.3527 15.7119Z" fill="#BDBDBD"/>
</svg>
