<svg width="24" height="27" viewBox="0 0 24 27" fill="none" xmlns="http://www.w3.org/2000/svg">
<g clip-path="url(#clip0)">
<path d="M22.4 0.78125H14.4C13.5164 0.78125 12.8 1.55854 12.8 2.51737V7.72571C12.8 8.68454 13.5164 9.46183 14.4 9.46183H14.6468L14.4032 11.5782C14.3827 11.7568 14.466 11.9306 14.6124 12.0151C14.7589 12.0996 14.9383 12.0772 15.0632 11.9588L17.6944 9.46183H22.4C23.2837 9.46183 24 8.68454 24 7.72571V2.51737C24 1.55854 23.2837 0.78125 22.4 0.78125ZM23.2 7.72571C23.2 8.20513 22.8419 8.59377 22.4 8.59377H17.544C17.4473 8.59377 17.3537 8.63186 17.2808 8.70097L15.3272 10.5551L15.4968 9.08162C15.5111 8.95811 15.4757 8.83392 15.3998 8.7406C15.3239 8.64728 15.2148 8.59381 15.1 8.59377H14.4C13.9582 8.59377 13.6 8.20513 13.6 7.72571V2.51737C13.6 2.03795 13.9582 1.64931 14.4 1.64931H22.4C22.8419 1.64931 23.2 2.03795 23.2 2.51737V7.72571Z" fill="white"/>
<path d="M15.6001 3.81934C14.9373 3.81934 14.4001 4.4023 14.4001 5.12142C14.4001 5.84055 14.9373 6.42351 15.6001 6.42351C16.2628 6.42351 16.8001 5.84055 16.8001 5.12142C16.8001 4.4023 16.2628 3.81934 15.6001 3.81934ZM15.6001 5.55545C15.3792 5.55545 15.2001 5.36113 15.2001 5.12142C15.2001 4.88172 15.3792 4.68739 15.6001 4.68739C15.821 4.68739 16.0001 4.88172 16.0001 5.12142C16.0001 5.36113 15.821 5.55545 15.6001 5.55545Z" fill="white"/>
<path d="M18.4 3.81934C17.7372 3.81934 17.2 4.4023 17.2 5.12142C17.2 5.84055 17.7372 6.42351 18.4 6.42351C19.0627 6.42351 19.6 5.84055 19.6 5.12142C19.6 4.4023 19.0627 3.81934 18.4 3.81934ZM18.4 5.55545C18.1791 5.55545 18 5.36113 18 5.12142C18 4.88172 18.1791 4.68739 18.4 4.68739C18.6209 4.68739 18.8 4.88172 18.8 5.12142C18.8 5.36113 18.6209 5.55545 18.4 5.55545Z" fill="white"/>
<path d="M21.2 3.81934C20.5373 3.81934 20 4.4023 20 5.12142C20 5.84055 20.5373 6.42351 21.2 6.42351C21.8628 6.42351 22.4 5.84055 22.4 5.12142C22.4 4.4023 21.8628 3.81934 21.2 3.81934ZM21.2 5.55545C20.9791 5.55545 20.8 5.36113 20.8 5.12142C20.8 4.88172 20.9791 4.68739 21.2 4.68739C21.4209 4.68739 21.6 4.88172 21.6 5.12142C21.6 5.36113 21.4209 5.55545 21.2 5.55545Z" fill="white"/>
<path d="M22.4 15.9722H18.8944L16.2632 13.4752C16.1382 13.3569 15.9589 13.3345 15.8124 13.4189C15.6659 13.5034 15.5827 13.6773 15.6032 13.8559L15.8468 15.9722H15.6C14.7163 15.9722 14 16.7495 14 17.7083V21.6146C14 22.5734 14.7163 23.3507 15.6 23.3507H22.4C23.2836 23.3507 24 22.5734 24 21.6146V17.7083C24 16.7495 23.2836 15.9722 22.4 15.9722ZM23.2 21.6146C23.2 22.094 22.8418 22.4826 22.4 22.4826H15.6C15.1582 22.4826 14.8 22.094 14.8 21.6146V17.7083C14.8 17.2289 15.1582 16.8403 15.6 16.8403H16.3C16.4147 16.8402 16.5239 16.7868 16.5998 16.6934C16.6757 16.6001 16.711 16.4759 16.6968 16.3524L16.5272 14.8789L18.48 16.7331C18.5531 16.8024 18.6469 16.8405 18.744 16.8403H22.4C22.8418 16.8403 23.2 17.2289 23.2 17.7083V21.6146Z" fill="white"/>
<path d="M1.6 15.9723H2.6496C2.91757 16.4739 3.26051 16.9236 3.6644 17.3031C1.64923 18.531 0.40128 20.843 0.4 23.3508V25.521C0.4 26.2401 0.937258 26.823 1.6 26.823H12C12.6627 26.823 13.2 26.2401 13.2 25.521V23.3508C13.1956 20.844 11.9495 18.5332 9.9376 17.3009C10.3405 16.9218 10.6828 16.4729 10.9504 15.9723H12C12.8837 15.9723 13.6 15.195 13.6 14.2362V12.5001C13.5984 11.8891 13.2999 11.3242 12.8148 11.014C11.9031 8.2603 9.49659 6.42383 6.8 6.42383C4.10341 6.42383 1.69695 8.2603 0.7852 11.014C0.30007 11.3242 0.00164292 11.8891 0 12.5001V14.2362C0 15.195 0.716344 15.9723 1.6 15.9723ZM1.6 15.1043C1.15817 15.1043 0.8 14.7156 0.8 14.2362V12.5001C0.8 12.0207 1.15817 11.632 1.6 11.632H2.28C1.90668 12.754 1.90668 13.9823 2.28 15.1043H1.6ZM2.8 13.3682C2.79946 11.6618 3.72036 10.1135 5.15349 9.41113C6.58663 8.70877 8.26606 8.98272 9.44554 10.1112C10.625 11.2398 11.0857 13.0135 10.6228 14.6442C9.878 14.9076 9.10224 15.0538 8.3192 15.0782C8.14327 14.5728 7.69793 14.2377 7.2 14.2362H6.4C5.73726 14.2362 5.2 14.8192 5.2 15.5383C5.2 16.2574 5.73726 16.8404 6.4 16.8404H7.2C7.71552 16.8387 8.1721 16.479 8.3332 15.9476C8.9534 15.9206 9.57013 15.8335 10.176 15.6872C9.22613 17.3215 7.39425 18.0766 5.6839 17.5389C3.97354 17.0012 2.79749 15.3003 2.8 13.3682ZM7.6 15.5383C7.6 15.778 7.42091 15.9723 7.2 15.9723H6.4C6.17909 15.9723 6 15.778 6 15.5383C6 15.2986 6.17909 15.1043 6.4 15.1043H7.2C7.42091 15.1043 7.6 15.2986 7.6 15.5383ZM10.7576 19.0574C11.8128 20.1922 12.4045 21.7388 12.4 23.3508V25.521C12.4 25.7607 12.2209 25.955 12 25.955H10V23.3508C10 23.1111 9.82092 22.9168 9.6 22.9168C9.37909 22.9168 9.2 23.1111 9.2 23.3508V25.955H4.4V23.3508C4.4 23.1111 4.22091 22.9168 4 22.9168C3.77909 22.9168 3.6 23.1111 3.6 23.3508V25.955H1.6C1.37909 25.955 1.2 25.7607 1.2 25.521V23.3508C1.20184 21.0079 2.44489 18.8749 4.3948 17.8686C5.8799 18.8117 7.7185 18.8117 9.2036 17.8686C9.78152 18.1635 10.3074 18.5658 10.7576 19.0574ZM12.8 14.2362C12.8 14.7156 12.4418 15.1043 12 15.1043H11.32C11.6933 13.9823 11.6933 12.754 11.32 11.632H12C12.4418 11.632 12.8 12.0207 12.8 12.5001V14.2362ZM6.8 7.29174C8.9618 7.29067 10.9301 8.64307 11.8536 10.764H10.9504C10.0958 9.1529 8.51315 8.1599 6.8 8.1599C5.08685 8.1599 3.5042 9.1529 2.6496 10.764H1.7464C2.66988 8.64307 4.6382 7.29067 6.8 7.29174Z" fill="white"/>
<path d="M15.9999 19.0104H17.2C17.4209 19.0104 17.6 18.8161 17.6 18.5764C17.6 18.3367 17.4209 18.1423 17.2 18.1423H15.9999C15.779 18.1423 15.5999 18.3367 15.5999 18.5764C15.5999 18.8161 15.779 19.0104 15.9999 19.0104Z" fill="white"/>
<path d="M22.0001 18.1423H18.8001C18.5791 18.1423 18.4001 18.3367 18.4001 18.5764C18.4001 18.8161 18.5791 19.0104 18.8001 19.0104H22.0001C22.221 19.0104 22.4001 18.8161 22.4001 18.5764C22.4001 18.3367 22.221 18.1423 22.0001 18.1423Z" fill="white"/>
<path d="M22.0001 20.3125H20.8001C20.5792 20.3125 20.4001 20.5068 20.4001 20.7465C20.4001 20.9862 20.5792 21.1806 20.8001 21.1806H22.0001C22.221 21.1806 22.4001 20.9862 22.4001 20.7465C22.4001 20.5068 22.221 20.3125 22.0001 20.3125Z" fill="white"/>
<path d="M19.1999 20.3125H15.9999C15.779 20.3125 15.5999 20.5068 15.5999 20.7465C15.5999 20.9862 15.779 21.1806 15.9999 21.1806H19.1999C19.4209 21.1806 19.5999 20.9862 19.5999 20.7465C19.5999 20.5068 19.4209 20.3125 19.1999 20.3125Z" fill="white"/>
</g>
<defs>
<clipPath id="clip0">
<rect width="24" height="26.0417" fill="white" transform="translate(0 0.78125)"/>
</clipPath>
</defs>
</svg>
