<svg width="24" height="26" viewBox="0 0 24 26" fill="none" xmlns="http://www.w3.org/2000/svg">
<path d="M23.7945 12.5324L22.2893 10.9916C22.2886 10.9909 22.2879 10.9901 22.2872 10.9894L12.4976 0.968168C12.3658 0.833188 12.1869 0.757324 12.0005 0.757324C11.814 0.757324 11.6351 0.833188 11.5033 0.968168L1.71376 10.9894C1.71306 10.9901 1.71236 10.9908 1.71165 10.9916L0.206449 12.5324C-0.0681449 12.8135 -0.0681449 13.2692 0.206449 13.5503C0.481043 13.8314 0.926215 13.8314 1.20081 13.5503L1.50671 13.2372V24.6056C1.50671 25.0031 1.82153 25.3254 2.20984 25.3254H9.74115H14.2598H21.7911C22.1794 25.3254 22.4942 25.0031 22.4942 24.6056V13.2371L22.8002 13.5503C22.9375 13.6909 23.1174 13.7611 23.2974 13.7611C23.4773 13.7611 23.6573 13.6909 23.7945 13.5503C24.0691 13.2692 24.0691 12.8135 23.7945 12.5324ZM13.5567 23.8859H10.4443V17.6158H13.5567V23.8859ZM21.088 23.8859H14.9629V16.8961C14.9629 16.4986 14.6481 16.1763 14.2598 16.1763H9.74115C9.35284 16.1763 9.03803 16.4986 9.03803 16.8961V23.8859H2.91296V11.7976L12.0005 2.49499L21.088 11.7976V23.8859Z" fill="white"/>
</svg>
