<svg width="24" height="19" viewBox="0 0 24 19" fill="none" xmlns="http://www.w3.org/2000/svg">
<g clip-path="url(#clip0)">
<path d="M22.8727 9.28603L21.4354 8.12145C21.4347 8.1209 21.434 8.12032 21.4333 8.11978L12.0852 0.545589C11.9593 0.443569 11.7885 0.38623 11.6105 0.38623C11.4324 0.38623 11.2616 0.443569 11.1357 0.545589L1.78761 8.11978C1.78694 8.12032 1.78627 8.12087 1.7856 8.12141L0.34827 9.28603C0.0860584 9.49848 0.0860584 9.84291 0.34827 10.0554C0.610482 10.2678 1.03558 10.2678 1.29779 10.0554L1.5899 9.81869V18.4111C1.5899 18.7116 1.89052 18.9551 2.26132 18.9551H9.45303H13.7679H20.9596C21.3304 18.9551 21.631 18.7116 21.631 18.4111V9.81865L21.9232 10.0553C22.0543 10.1616 22.2261 10.2147 22.3979 10.2147C22.5698 10.2147 22.7416 10.1616 22.8727 10.0553C23.1349 9.84291 23.1349 9.49848 22.8727 9.28603ZM13.0965 17.8671H10.1244V13.1281H13.0965V17.8671ZM20.2882 17.8671H14.4393V12.5841C14.4393 12.2837 14.1387 12.0401 13.7679 12.0401H9.45303C9.08222 12.0401 8.78161 12.2837 8.78161 12.5841V17.8671H2.93274V8.73063L11.6105 1.69958L20.2882 8.73063V17.8671Z" fill="#BDBDBD"/>
</g>
<defs>
<clipPath id="clip0">
<rect width="22.9178" height="18.5689" fill="white" transform="translate(0.151123 0.38623)"/>
</clipPath>
</defs>
</svg>
