<svg width="24" height="19" viewBox="0 0 24 19" fill="none" xmlns="http://www.w3.org/2000/svg">
<g clip-path="url(#clip0)">
<path d="M12.39 0.38623C9.64042 0.38623 7.40356 2.19866 7.40356 4.42638C7.40356 6.65418 9.64047 8.4666 12.39 8.4666C15.1395 8.4666 17.3763 6.65418 17.3763 4.42642C17.3763 2.19866 15.1395 0.38623 12.39 0.38623ZM12.39 7.37855C10.3809 7.37855 8.7464 6.05421 8.7464 4.42638C8.7464 2.79859 10.3809 1.47425 12.39 1.47425C14.399 1.47425 16.0335 2.79859 16.0335 4.42638C16.0335 6.05421 14.399 7.37855 12.39 7.37855Z" fill="#BDBDBD"/>
<path d="M12.3901 10.8748C7.26122 10.8748 3.08862 14.2556 3.08862 18.4111C3.08862 18.7116 3.38924 18.9551 3.76004 18.9551H21.02C21.3908 18.9551 21.6914 18.7116 21.6914 18.4111C21.6914 14.2556 17.5189 10.8748 12.3901 10.8748ZM4.45953 17.8671C4.8015 14.565 8.22776 11.9628 12.3901 11.9628C16.5524 11.9628 19.9786 14.565 20.3205 17.8671H4.45953Z" fill="#BDBDBD"/>
</g>
<defs>
<clipPath id="clip0">
<rect width="22.9178" height="18.5689" fill="white" transform="translate(0.931152 0.38623)"/>
</clipPath>
</defs>
</svg>
